<?xml version="1.0" encoding="UTF-8"?>
<!-- Generated by Pixelmator Pro 2.4.2 -->
<svg width="1584" height="128" viewBox="0 0 1584 128" xmlns="http://www.w3.org/2000/svg" xmlns:xlink="http://www.w3.org/1999/xlink">
    <g id="Group-copy" style="isolation:isolate">
        <g id="bxl-redux">
            <path id="Path" fill="white" stroke="none" d="M 174.073212 80.567284 C 177.524185 80.230484 180.092209 77.226868 179.888596 73.765488 C 179.729584 70.213249 176.819138 67.406281 173.263474 67.375923 L 173.027908 67.375923 C 169.370392 67.506454 166.509293 70.573959 166.633438 74.231705 C 166.751221 76.091644 167.511887 77.603149 168.552277 78.702438 C 164.493759 86.598602 158.393738 92.413986 149.14801 97.292053 C 142.93512 100.545723 136.368881 101.767685 129.984222 100.89415 C 124.639954 100.143303 120.463669 97.753357 117.897049 93.920593 C 114.069199 88.105202 113.715858 81.838326 116.910645 75.566544 C 118.859131 71.824814 121.643318 68.582191 125.047279 66.090164 C 124.346863 64.144348 123.803658 62.1455 123.422897 60.112823 C 106.217194 72.430649 107.974083 89.273193 113.195663 97.233154 C 117.092216 103.04364 125.047279 106.758614 133.758087 106.758614 C 136.084244 106.758614 138.528183 106.586853 140.908325 106.002861 C 156.008698 103.097618 167.452988 94.038376 174.019226 80.680161 L 174.073212 80.567284 Z"/>
            <path id="path1" fill="white" stroke="none" d="M 194.812302 66.041077 C 185.811951 55.470329 172.566605 49.664757 157.461319 49.664757 L 155.483597 49.664757 C 154.50209 47.515266 152.239731 46.175522 149.678024 46.175522 L 149.501358 46.175522 C 145.850174 46.175522 142.998917 49.316322 143.116699 52.972404 C 143.229568 56.456734 146.193695 59.361977 149.741821 59.361977 L 150.031357 59.361977 C 152.596542 59.264931 154.867462 57.675468 155.836929 55.298561 L 157.991333 55.298561 C 166.942612 55.298561 175.417862 57.909355 183.147171 63.022972 C 189.065613 66.909714 193.315521 72.023323 195.695648 78.123352 C 197.781342 83.124092 197.668472 88.002144 195.523895 92.075371 C 192.211334 98.464935 186.6315 101.831482 179.260437 101.831482 C 174.613037 101.831482 170.078506 100.378868 167.75235 99.333565 C 166.363525 100.486832 164.032455 102.405663 162.344284 103.568741 C 167.457901 105.889984 172.630402 107.229736 177.621338 107.229736 C 188.952759 107.229736 197.364197 100.840172 200.568802 94.681252 C 204.048218 87.702789 203.76358 75.968964 194.871201 65.928207 L 194.812302 66.041077 Z"/>
            <path id="path2" fill="white" stroke="none" d="M 134.744492 82.657883 C 134.857376 86.142204 137.816589 89.047447 141.369629 89.047447 L 141.605179 89.047447 C 143.368958 89.007111 145.041794 88.256615 146.244644 86.965996 C 147.447495 85.675385 148.078522 83.953911 147.994751 82.191666 C 147.994751 78.707344 144.971725 75.807007 141.428513 75.807007 L 141.192963 75.807007 C 140.957397 75.807007 140.613876 75.807007 140.319412 75.914978 C 135.500259 67.783249 133.463638 59.062614 134.224304 49.664757 C 134.685608 42.57341 137.006851 36.414505 141.192963 31.300888 C 144.677277 26.943024 151.243515 24.793541 155.719147 24.675758 C 168.262726 24.440201 173.494125 40.0755 173.89653 46.288391 L 179.707016 48.02565 C 178.367264 28.974731 166.520569 18.983063 155.189148 18.983063 C 144.559494 18.983063 134.744492 26.707466 130.793961 38.043785 C 125.385895 53.144173 128.934021 67.665466 135.559143 79.286423 C 134.980057 80.042183 134.631622 81.377022 134.744492 82.657883 Z"/>
        </g>
        <g id="bxl-postgresql">
            <path id="path3" fill="white" stroke="none" d="M 803.186768 77.040115 L 803.186768 76.433701 C 803.517517 75.606781 803.848328 74.834976 804.234192 74.063187 C 807.2854 67.614693 807.797119 60.25386 805.667542 53.445198 C 805.439636 51.45269 803.982666 49.819115 802.029053 49.3657 C 797.927795 49.080223 793.859863 50.273209 790.562378 52.728531 L 790.562378 53.72084 C 790.9245 58.148659 790.81366 62.602463 790.231628 67.00676 C 789.597595 71.013298 790.860474 75.087051 793.649597 78.032425 C 795.697632 80.211258 798.542908 81.464752 801.532898 81.505508 C 802.003906 79.988518 802.555969 78.49791 803.186768 77.040115 Z M 799.1073 53.279816 C 798.797546 52.928902 798.621826 52.479805 798.611145 52.011871 C 798.678772 51.732643 798.858154 51.493462 799.1073 51.350327 C 799.920898 50.92804 800.853088 50.792099 801.753418 50.964432 C 803.131653 50.964432 804.509827 51.846481 804.399597 52.838791 C 803.977783 53.958069 802.894043 54.687958 801.698303 54.658028 L 801.367554 54.658028 C 800.461731 54.515045 799.64917 54.019608 799.1073 53.279816 Z"/>
            <path id="path4" fill="white" stroke="none" d="M 787.420044 66.620865 C 787.917419 62.413338 788.028137 58.16909 787.750854 53.941353 L 787.750854 52.397766 C 787.533569 43.296989 790.540649 34.412415 796.240601 27.314384 C 790.727783 25.550278 777.496948 21.801552 769.393127 27.865669 C 764.43158 31.393883 762.116211 38.009277 762.612366 47.436218 C 763.710571 55.67215 765.555786 63.791092 768.125183 71.692673 C 771.873901 83.931152 776.118774 91.649109 779.757263 92.917068 C 780.308533 92.917068 782.017517 93.633728 784.498291 90.656799 C 788.026489 86.467056 791.279053 82.883713 792.767517 81.284988 L 791.720093 80.237556 C 788.219055 76.631065 786.625244 71.583939 787.420044 66.620865 Z M 806.714966 85.364487 C 805.832947 85.033722 805.391907 84.813202 804.399597 85.970901 C 803.809631 86.56459 803.274536 87.210381 802.800842 87.900391 C 800.871399 90.270905 800.044434 91.097824 794.476501 92.255524 C 793.722412 92.380676 792.983398 92.583908 792.271362 92.861938 C 792.884338 93.291367 793.578369 93.591476 794.311096 93.743988 C 799.375183 95.45681 804.964294 93.668297 808.093201 89.333725 C 808.38147 88.72287 808.38147 88.015091 808.093201 87.404236 C 807.918762 86.570007 807.423889 85.837585 806.714966 85.364487 Z M 841.390686 53.279816 C 841.646606 51.841209 841.794006 50.385391 841.831726 48.92469 C 838.193237 48.48365 834.003479 48.53878 832.349609 50.909302 C 829.152222 55.484947 835.436829 66.786247 837.862488 71.582413 C 838.395325 72.43351 838.874023 73.317314 839.295776 74.228577 C 839.515869 74.823486 839.792786 75.395798 840.122742 75.937546 C 841.558289 72.193825 841.86499 68.111389 841.004761 64.195221 C 840.740967 62.27713 840.612 60.342888 840.618896 58.406754 C 840.741577 56.680214 840.999634 54.965965 841.390686 53.279816 Z M 838.303467 52.397766 C 837.826111 52.884499 837.209961 53.211823 836.539368 53.334946 L 836.208618 53.334946 C 835.13562 53.339104 834.171082 52.681458 833.782959 51.681099 C 833.782959 50.909302 834.885559 50.358017 836.208618 50.137505 C 837.531677 49.916985 838.854797 50.137505 838.965027 50.964432 C 838.93988 51.510193 838.702454 52.024529 838.303467 52.397766 Z"/>
            <path id="path5" fill="white" stroke="none" d="M 837.697083 32.882355 C 841.328857 36.920845 843.921265 41.783943 845.249634 47.050323 C 845.27887 47.32518 845.27887 47.602379 845.249634 47.877243 C 845.267761 49.836357 845.101624 51.792831 844.753479 53.72084 C 844.492065 55.289658 844.326416 56.872925 844.257324 58.461884 C 844.246216 60.30661 844.375244 62.149513 844.64325 63.974709 C 845.756836 69.033165 845.054199 74.322182 842.65863 78.914474 L 843.044495 79.355499 C 855.28302 60.115723 859.583008 37.788765 855.668884 32.882355 C 850.587341 26.493866 842.827026 22.827576 834.665039 22.959251 C 831.646179 22.917122 828.632141 23.212975 825.679138 23.841309 C 830.309509 25.92054 834.415833 29.00972 837.697083 32.882355 Z"/>
            <path id="path6" fill="white" stroke="none" d="M 863.331726 83.159355 C 862.945862 82.056793 861.291992 78.47345 855.227905 79.741402 C 853.412476 80.127686 851.568909 80.36734 849.715027 80.458069 C 854.691956 72.041458 858.511841 62.99247 861.071472 53.555458 C 863.111206 45.561859 864.709961 34.866966 860.465088 29.409264 C 854.144592 21.391617 844.431335 16.800262 834.223999 17.005394 C 829.633057 16.975967 825.062988 17.626175 820.662415 18.934891 C 818.021912 18.470795 815.349365 18.212746 812.668823 18.163086 C 807.923584 18.065575 803.239441 19.246117 799.1073 21.581047 C 795.919678 20.530556 792.65802 19.719749 789.349548 19.155396 C 781.405884 17.130051 772.97937 18.444824 766.030273 22.793861 C 759.194397 27.590034 756.052063 35.969536 756.603333 47.711861 C 757.655762 56.443031 759.500977 65.060242 762.116211 73.456772 C 763.671631 78.710175 765.72052 83.804672 768.235413 88.67218 C 770.027527 93.154846 773.484741 96.770134 777.882874 98.760666 C 781.128662 99.817734 784.692383 99.037521 787.199585 96.720909 C 788.67511 98.326385 790.593567 99.458282 792.712402 99.97348 C 796.997498 101.154137 801.552917 100.882744 805.667542 99.201691 L 805.667542 103.667076 C 805.621216 108.062714 806.196594 112.442818 807.376526 116.677361 C 807.39209 116.915993 807.39209 117.155388 807.376526 117.39402 C 808.111633 119.954651 809.454407 122.299805 811.290649 124.229942 C 813.511047 126.307396 816.465698 127.417877 819.504761 127.317123 C 820.803955 127.322189 822.099182 127.174164 823.363708 126.876099 C 828.204651 126.286346 832.600159 123.760445 835.547058 119.874802 C 839.281067 113.150543 841.021301 105.501328 840.563782 97.823479 L 840.563782 96.390144 L 841.500916 96.390144 C 846.023132 96.703384 850.555542 95.947968 854.73175 94.185013 C 857.212524 92.917068 865.26123 88.67218 863.331726 83.159355 Z M 853.353516 91.263214 C 850.200745 92.532784 846.829041 93.169662 843.43042 93.137581 C 841.959106 93.176788 840.490417 92.990875 839.075256 92.586296 C 838.523987 97.768356 837.311157 107.415802 836.594482 111.44017 C 836.157227 118.149338 830.888611 123.535065 824.190674 124.119682 C 822.994263 124.37291 821.775024 124.502228 820.552185 124.505577 C 815.620239 124.390556 811.364929 121.013321 810.132935 116.236336 C 808.71167 108.865967 808.193359 101.349945 808.589355 93.854248 C 805.905579 96.279884 802.392883 97.582352 798.776489 97.492714 C 797.026611 97.46347 795.286621 97.222839 793.594421 96.776039 C 793.098267 96.776039 788.798279 95.508087 788.853394 92.751678 C 788.908508 89.995262 792.491882 89.499107 793.814941 89.223465 C 798.555969 88.231155 798.88678 87.845261 800.375244 85.970901 C 800.69989 85.511032 801.049561 85.069351 801.422668 84.647827 C 799.283875 84.567673 797.191345 84.002121 795.303406 82.993973 C 794.035461 84.372177 790.562378 88.120895 786.81366 92.586296 C 785.432373 94.640541 783.166321 95.926651 780.694397 96.05938 C 780.054565 96.151352 779.404785 96.151352 778.764954 96.05938 C 773.913635 94.185013 769.338013 86.191414 765.148254 72.133698 C 762.546997 63.996452 760.701599 55.636696 759.635437 47.160576 C 759.084106 36.575935 761.840515 29.078499 767.739258 25.109253 C 778.323914 17.611809 795.303406 23.400276 799.162415 24.778488 C 803.088867 22.17804 807.744751 20.902985 812.448303 21.140022 C 815.052612 21.142754 817.645996 21.476189 820.16626 22.132332 C 824.602417 20.622627 829.262634 19.876991 833.948364 19.9272 C 843.174744 19.673508 851.987793 23.753654 857.763794 30.952858 C 861.567627 35.804146 859.031738 47.491348 857.763794 52.397766 C 854.935181 62.977501 850.451172 73.04332 844.477844 82.222168 C 845.359924 82.828583 848.061218 83.931152 855.50354 82.222168 C 858.039429 81.670883 859.527893 82.222168 860.024048 83.60038 C 861.236877 86.632439 856.165039 89.82988 853.353516 91.152954 Z"/>
            <path id="path7" fill="white" stroke="none" d="M 840.067627 80.899094 C 838.662781 79.240013 837.510986 77.382309 836.649658 75.386261 C 836.649658 75.000366 835.988098 74.063187 835.381714 73.015747 C 832.184265 67.502914 825.513733 55.264435 829.868835 49.090065 C 832.855347 45.914299 837.33844 44.624329 841.556091 45.727234 C 840.138855 41.817032 838.028625 38.194183 835.326538 35.032356 C 829.749023 28.161095 821.407898 24.121811 812.558594 24.006691 C 807.341736 23.677864 802.230957 25.581863 798.500854 29.243874 C 793.807068 34.773499 791.125366 41.73037 790.893127 48.979805 L 791.720093 48.53878 C 794.012085 47.30249 796.519653 46.516548 799.1073 46.223389 C 801.271973 45.722008 803.547668 46.144257 805.388367 47.38884 C 807.229126 48.633423 808.46875 50.588013 808.809875 52.783661 C 811.076294 60.239403 810.506958 68.269791 807.211121 75.331131 C 806.852661 76.026833 806.539612 76.74501 806.273926 77.48114 L 806.273926 78.087555 C 805.722656 79.576019 805.226501 80.954224 804.895752 82.111923 C 805.957764 81.909607 807.056519 82.04454 808.038025 82.497818 C 809.716003 83.296448 810.963562 84.785461 811.455994 86.577309 L 811.455994 87.459366 C 811.482788 87.623665 811.482788 87.791214 811.455994 87.955521 C 810.862183 96.976974 811.268921 106.036438 812.668823 114.968384 C 813.171204 117.329483 814.680237 119.35318 816.799805 120.508362 C 818.919434 121.663551 821.437988 121.834869 823.694519 120.977371 C 829.133545 120.61055 833.40448 116.172638 833.562439 110.723503 C 834.389404 105.872223 836.043213 92.255524 836.263733 89.333725 C 836.263733 83.490128 839.130432 82.332428 840.894531 81.836273 Z"/>
            <path id="path8" fill="white" stroke="none" d="M 843.2099 84.978592 L 842.76886 84.647827 L 842.107361 84.647827 C 840.674011 85.033722 839.350952 85.419617 839.516296 89.058083 C 841.143188 89.703476 842.905823 89.930908 844.64325 89.71962 C 847.25 89.610001 849.820618 89.069794 852.250977 88.120895 C 853.845093 87.401627 855.315063 86.434052 856.606079 85.254227 C 852.253479 86.780357 847.496033 86.682465 843.2099 84.978592 Z"/>
        </g>
        <path id="bxl-nodejs" fill="white" stroke="none" d="M 417.428558 115.162025 C 415.982025 115.162025 414.630157 114.798241 413.367706 114.169022 L 400.538239 107.050858 C 398.618286 106.052948 399.580902 105.689178 400.159515 105.507286 C 402.768555 104.696175 403.252472 104.519196 405.950928 103.083771 C 406.245483 102.901878 406.629486 102.985451 406.924072 103.167343 L 416.760498 108.673096 C 417.14975 108.850067 417.633698 108.850067 417.923004 108.673096 L 456.421936 87.844627 C 456.811188 87.667664 457.000549 87.303894 457.000549 86.851624 L 457.000549 45.273354 C 457.000549 44.826012 456.811188 44.462242 456.421936 44.285263 L 417.923004 23.545288 C 417.539001 23.363403 417.055084 23.363403 416.760498 23.545288 L 378.251068 44.28035 C 377.867065 44.457329 377.672424 44.914497 377.672424 45.26844 L 377.672424 86.841797 C 377.672424 87.200653 377.867065 87.657822 378.251068 87.834801 L 388.771332 93.522446 C 394.462799 96.216331 398.039673 93.055435 398.039673 89.909286 L 398.039673 48.881584 C 398.039673 48.340843 398.518372 47.795189 399.19693 47.795189 L 404.120392 47.795189 C 404.688507 47.795189 405.277618 48.247444 405.277618 48.881584 L 405.277618 89.914207 C 405.277618 97.037277 401.13266 101.191162 393.894684 101.191162 C 391.674927 101.191162 389.939087 101.191162 385.015594 98.929878 L 374.889832 93.527359 C 372.37912 92.16333 370.83429 89.654167 370.834259 86.940109 L 370.834259 45.361832 C 370.834259 42.658119 372.375488 40.131371 374.889832 38.779518 L 413.372986 17.951042 C 415.910187 16.682976 418.957428 16.682976 421.494629 17.951042 L 459.983063 38.779518 C 462.502655 40.126457 464.038605 42.658119 464.038605 45.361832 L 464.038605 86.940109 C 464.038605 89.638916 462.497406 92.165665 459.983063 93.527359 L 421.494629 114.350906 C 420.226929 114.891647 418.780396 115.162025 417.428558 115.162025 Z M 429.29541 86.571426 C 412.41037 86.571426 408.93869 79.35495 408.93869 73.229797 C 408.93869 72.689056 409.422607 72.143402 410.095917 72.143402 L 415.114105 72.143402 C 415.692688 72.143402 416.171387 72.502258 416.171387 73.047913 C 416.944611 77.821213 419.159149 80.170982 429.395355 80.170982 C 437.495972 80.170982 440.97818 78.450439 440.97818 74.394867 C 440.97818 72.050003 440.005066 70.339279 427.370209 69.169312 C 416.855194 68.186142 410.295807 66.008415 410.295807 58.167633 C 410.295807 50.867592 416.855194 46.536728 427.859406 46.536728 C 440.204926 46.536728 446.285645 50.513649 447.05365 59.160637 C 447.044434 59.452446 446.941803 59.734985 446.759064 59.971748 C 446.564453 60.14872 446.280396 60.330612 445.991089 60.330612 L 440.97818 60.330612 C 440.468445 60.32048 440.030945 59.988548 439.915619 59.524406 C 438.753143 54.549561 435.765381 52.937164 427.859406 52.937164 C 418.975037 52.937164 417.912476 55.822769 417.912476 57.985748 C 417.912476 60.596062 419.159149 61.407181 431.136475 62.85244 C 443.003326 64.292786 448.600128 66.367279 448.600128 74.129402 C 448.494904 82.068504 441.556793 86.571426 429.29541 86.571426 Z"/>
        <path id="bxl-javascript" fill="white" stroke="none" d="M 476.928589 23.940742 L 572.982544 23.940742 L 572.982544 111.195877 L 476.928589 111.195877 L 476.928589 23.940742 Z M 565.11145 90.385529 C 564.412415 86.405724 561.557495 83.060944 553.094055 79.939148 C 550.148376 78.683647 546.877197 77.815941 545.895325 75.799377 C 545.532471 74.597198 545.479126 73.947632 545.713928 73.235046 C 546.316895 70.888855 549.379944 70.185959 551.781311 70.835526 C 553.344849 71.271805 554.785645 72.362495 555.6875 74.112442 C 559.823181 71.654762 559.823181 71.654762 562.710144 70.021149 C 561.626831 68.499039 561.087891 67.834923 560.367493 67.180511 C 557.843384 64.621025 554.481506 63.312195 549.0224 63.423691 L 546.204834 63.748474 C 543.499329 64.349564 540.916565 65.663239 539.358337 67.403488 C 534.795776 72.095886 536.113831 80.273628 541.636963 83.662033 C 547.096008 87.370377 555.089844 88.184761 556.10907 91.674965 C 557.069641 95.931076 552.629761 97.293228 548.237976 96.803627 C 544.99884 96.144371 543.195129 94.675568 541.215393 91.946426 L 533.893921 95.766258 C 534.73175 97.506523 535.692261 98.272423 537.133057 99.799393 C 544.096985 106.178711 561.50946 105.853928 564.631165 96.144371 C 564.743286 95.81958 565.591736 93.584885 564.930054 90.14801 L 565.11145 90.385529 Z M 529.160583 64.044174 L 520.163513 64.044174 C 520.163513 71.087601 520.12616 78.092247 520.12616 85.150223 C 520.12616 89.629318 520.377014 93.740005 519.571228 95.005203 C 518.253113 97.511368 514.843201 97.191429 513.301025 96.745453 C 511.716125 96.03772 510.910339 95.05368 509.976471 93.638206 C 509.725677 93.260101 509.53891 92.930473 509.469543 92.930473 L 502.169434 97.021767 C 503.391449 99.314636 505.173798 101.28273 507.473755 102.533379 C 510.894318 104.389984 515.488892 104.991066 520.302307 104.011871 C 523.440063 103.187798 526.145569 101.496017 527.549011 98.878357 C 529.598206 95.499649 529.160583 91.350189 529.144592 86.715965 C 529.187256 79.245956 529.144592 71.771095 529.144592 64.247765 L 529.160583 64.044174 Z"/>
        <path id="websocket" fill="white" stroke="none" d="M 693.34259 91.400787 L 709.573303 91.400787 L 709.573303 53.197548 L 691.286926 35.27198 L 679.809998 46.522774 L 693.34259 59.788719 L 693.34259 91.400284 Z M 709.616211 99.37677 L 653.00177 99.37677 L 639.468689 86.111328 L 645.207642 80.485931 L 656.384766 91.442841 L 679.381531 91.442841 L 656.727478 69.193085 L 662.50885 63.525627 L 685.162903 85.733833 L 685.162903 63.189186 L 674.028687 52.274338 L 679.724243 46.690491 L 651.588562 18.983063 L 595.059448 18.983063 L 611.247253 34.851929 L 611.247253 34.893982 L 644.822021 34.893982 L 656.68457 46.522774 L 639.340454 63.525131 L 627.477966 51.896339 L 627.477966 42.870468 L 611.247253 42.870468 L 611.247253 58.487503 L 639.340454 86.027222 L 627.905945 97.235954 L 646.192322 115.162025 L 725.804016 115.162025 L 709.616211 99.37677 Z"/>
        <g id="redux-saga">
            <path id="path9" fill="white" stroke="none" d="M 294.935883 54.069351 C 294.934509 52.034706 296.020142 50.15432 297.782898 49.138176 C 299.545624 48.122032 301.716919 48.124939 303.476929 49.14579 C 308.630981 47.253639 314.371094 46.263657 320.339508 46.263657 C 336.321869 46.263657 350.030121 53.402054 354.66394 63.675018 C 354.62442 66.107162 351.169373 67.239815 349.790863 65.747162 C 345.99118 57.495872 333.988495 51.555992 320.339508 51.555992 C 315.378632 51.555992 310.617523 52.313293 306.306366 53.75985 C 306.421387 55.827812 305.403534 57.794922 303.649017 58.895546 C 301.894501 59.996178 299.680481 60.056442 297.868683 59.052895 C 296.056885 58.049339 294.933533 56.140518 294.935883 54.069351 Z M 358.841156 75.238678 C 358.842743 72.745186 357.220551 70.541199 354.839294 69.801521 C 352.458038 69.061852 349.87262 69.958878 348.461151 72.014435 C 347.049713 74.069992 347.141144 76.805077 348.686737 78.76178 C 346.869202 81.556114 344.044159 84.087036 340.424469 86.119675 C 334.833618 89.25425 327.701813 90.981773 320.337311 90.981773 C 313.960602 90.981773 307.838531 89.719604 302.627441 87.326973 C 299.106506 85.709198 296.178284 83.667778 293.989807 81.316849 C 292.538849 80.471741 289.184784 83.167297 290.400848 85.221893 C 296.9729 92.057365 308.119507 96.276299 320.337311 96.276299 C 328.592987 96.276299 336.646729 94.309509 343.014648 90.735931 C 347.681396 88.117203 351.303284 84.7258 353.581757 80.910759 C 356.54718 80.683746 358.838379 78.212769 358.841156 75.238678 Z"/>
            <path id="path10" fill="white" stroke="none" d="M 249.225586 85.915543 C 244.036423 79.187622 241.097214 69.693909 241.097214 59.442902 C 241.097214 50.113823 243.557892 41.309372 248.024872 34.649506 C 252.70697 27.662575 259.041962 23.816795 265.859894 23.816795 C 272.074158 23.816795 277.998657 27.091858 282.544678 33.036118 C 286.836029 38.651131 289.628174 46.309753 290.403046 54.60495 C 288.561127 53.587082 286.662201 52.676086 284.715607 51.876472 C 282.513947 38.690643 274.752136 29.109131 265.859894 29.109131 C 260.861694 29.109131 256.087402 32.122971 252.417236 37.597496 C 248.529739 43.394691 246.387344 51.154289 246.387344 59.445099 C 246.387344 68.559059 249.080704 77.212051 253.653061 82.985107 C 256.255768 82.725937 258.699921 84.274643 259.577026 86.7388 C 260.454132 89.202942 259.538239 91.947655 257.357117 93.391281 C 255.175995 94.834915 252.291611 94.605515 250.366089 92.835281 C 248.440567 91.065048 247.970016 88.210068 249.225586 85.915543 Z M 289.709381 57.860252 C 280.41983 52.495483 270.054688 50.366257 261.476318 51.863304 C 259.612274 50.032196 256.740662 49.706123 254.513535 51.07267 C 252.286407 52.439217 251.276352 55.147041 252.064484 57.638306 C 252.852615 60.12957 255.236298 61.763771 257.844147 61.600731 C 260.452026 61.437691 262.613586 59.519325 263.085297 56.949295 C 270.304901 55.882492 279.069855 57.827324 287.062134 62.443573 C 296.823639 68.078339 303.727173 76.825722 305.077148 84.936531 C 306.760773 85.638954 308.598053 86.240402 310.586792 86.707962 C 310.068756 76.171585 301.984283 64.943764 289.709381 57.860252 Z M 291.112061 101.717896 C 285.988739 102.369835 280.176178 101.555466 274.460205 99.417465 C 272.818268 100.686218 271.079773 101.875946 269.253479 102.975677 C 275.325043 105.763428 281.686401 107.227539 287.586761 107.227539 C 289.015747 107.227539 290.420593 107.14193 291.783752 106.968521 C 298.849701 106.07074 304.449341 102.883484 307.669525 97.957733 C 305.846985 97.516197 304.051392 96.970184 302.291595 96.322395 C 299.813324 99.213318 295.930237 101.105469 291.112061 101.717896 Z M 285.446564 80.926125 C 288.062134 80.89801 290.321564 79.090179 290.922729 76.544479 C 291.523926 73.998779 290.311951 71.371155 287.98526 70.175911 C 285.6586 68.980667 282.816742 69.525772 281.097473 71.497086 C 279.378174 73.468414 279.224487 76.357986 280.724945 78.500565 C 279.642761 81.103928 278.055725 83.709488 276.03186 86.192116 C 272.901703 90.029114 268.785919 93.479774 264.130157 96.168739 C 257.630524 99.924522 250.630432 101.939598 244.192276 101.937408 C 243.520584 101.937408 242.853271 101.915451 242.194748 101.871552 C 235.618301 101.430344 230.622299 98.802834 228.122116 94.476334 C 223.692444 86.802345 228.108948 75.260635 238.408249 66.772263 C 238.154999 64.883636 238.001129 62.983002 237.947281 61.078239 L 237.655334 60.67215 C 230.947174 65.494736 225.788742 71.719971 223.126114 78.19545 C 220.305435 85.057266 220.452515 91.778587 223.538788 97.121407 C 226.947739 103.023972 233.447372 106.588776 241.839142 107.152908 C 242.609619 107.203392 243.38887 107.229736 244.174713 107.229736 C 251.5392 107.229736 259.474396 104.968811 266.775238 100.75206 C 275.478699 95.729729 282.160522 88.556213 285.446564 80.926125 Z"/>
        </g>
        <g id="git">
            <path id="path11" fill="white" stroke="none" d="M 1468.484619 58.353264 C 1463.332397 58.353264 1459.495483 60.882919 1459.495483 66.97139 C 1459.495483 71.558456 1462.024292 74.743546 1468.206665 74.743546 C 1473.447266 74.743546 1477.00708 71.655121 1477.00708 66.780838 C 1477.00708 61.257584 1473.821899 58.353264 1468.484619 58.353264 Z M 1458.183716 101.343559 C 1456.963989 102.839439 1455.748901 104.430138 1455.748901 106.305283 C 1455.748901 110.049133 1460.522827 111.17588 1467.080811 111.17588 C 1472.511963 111.17588 1479.911377 110.794777 1479.911377 105.744675 C 1479.911377 102.742783 1476.351563 102.557755 1471.85376 102.27607 L 1458.183716 101.343559 Z M 1485.904053 58.635872 C 1487.586792 60.789948 1489.369019 63.788155 1489.369019 68.095375 C 1489.369019 78.49015 1481.221313 84.576782 1469.423584 84.576782 C 1466.423584 84.576782 1463.707886 84.203041 1462.024292 83.735413 L 1458.932129 88.697136 L 1468.109009 89.258667 C 1484.3125 90.291512 1493.861206 90.760994 1493.861206 103.211342 C 1493.861206 113.983543 1484.405396 120.067406 1468.109009 120.067406 C 1451.159058 120.067406 1444.696899 115.759262 1444.696899 108.361786 C 1444.696899 104.14753 1446.57019 101.904175 1449.848267 98.80838 C 1446.75708 97.502129 1445.727905 95.162109 1445.727905 92.631531 C 1445.727905 90.569519 1446.75708 88.698059 1448.445313 86.916801 C 1450.129883 85.14016 1452.002319 83.358902 1454.250244 81.298729 C 1449.662231 79.050766 1446.195557 74.181091 1446.195557 67.249397 C 1446.195557 56.481804 1453.314087 49.086159 1467.639526 49.086159 C 1471.667847 49.086159 1474.103638 49.456215 1476.25769 50.022354 L 1494.52124 50.022354 L 1494.52124 57.979523 L 1485.904053 58.635872 Z M 1510.997192 41.61779 C 1505.657959 41.61779 1502.567749 38.524765 1502.567749 33.184692 C 1502.567749 27.85199 1505.657104 24.945831 1510.997192 24.945831 C 1516.428345 24.945831 1519.519531 27.85199 1519.519531 33.184692 C 1519.519531 38.524765 1516.429321 41.61779 1510.997192 41.61779 Z M 1498.914063 97.897041 L 1498.914063 90.502319 L 1503.691772 89.84874 C 1505.00354 89.660019 1505.189453 89.380173 1505.189453 87.972672 L 1505.189453 60.439217 C 1505.189453 59.411888 1504.909668 58.752785 1503.969727 58.474777 L 1498.914063 56.693527 L 1499.943237 49.110092 L 1519.330811 49.110092 L 1519.330811 87.972672 C 1519.330811 89.473145 1519.421021 89.660019 1520.830444 89.849655 L 1525.606201 90.503235 L 1525.606201 97.897041 L 1498.914063 97.897041 Z M 1562.640503 94.266418 C 1558.612305 96.231781 1552.712524 98.011185 1547.372437 98.011185 C 1536.228271 98.011185 1532.015869 93.520782 1532.015869 82.932693 L 1532.015869 58.399292 C 1532.015869 57.837761 1532.015869 57.463104 1531.263794 57.463104 L 1524.709595 57.463104 L 1524.709595 49.12574 C 1532.953003 48.18679 1536.228271 44.066437 1537.258423 33.858528 L 1546.156372 33.858528 L 1546.156372 47.160385 C 1546.156372 47.813965 1546.156372 48.096573 1546.906616 48.096573 L 1560.109985 48.096573 L 1560.109985 57.461258 L 1546.156372 57.461258 L 1546.156372 79.84243 C 1546.156372 85.367523 1547.469116 87.51976 1552.523804 87.51976 C 1555.14917 87.51976 1557.862061 86.86618 1560.109009 86.022964 L 1562.640503 94.265503"/>
            <path id="path12" fill="white" stroke="none" d="M 1423.879761 69.690674 L 1381.059692 26.873451 C 1379.875366 25.688744 1378.268799 25.023155 1376.59375 25.023155 C 1374.918579 25.023155 1373.312012 25.688744 1372.127686 26.873451 L 1363.236206 35.7659 L 1374.515625 47.044395 C 1377.220337 46.124542 1380.212769 46.821693 1382.232544 48.842216 C 1384.263428 50.875832 1384.955444 53.89032 1384.014648 56.606079 L 1394.883545 67.476776 C 1397.51355 66.570953 1400.548584 67.157341 1402.648315 69.260788 C 1404.058228 70.6698 1404.850342 72.58136 1404.850342 74.574615 C 1404.850342 76.567886 1404.058228 78.479446 1402.648315 79.888458 C 1400.115723 82.423447 1396.14563 82.81778 1393.163818 80.830513 C 1390.182007 78.843246 1389.017944 75.027206 1390.382935 71.714035 L 1380.245972 61.577011 L 1380.244995 88.254349 C 1380.979858 88.617722 1381.651123 89.097717 1382.232544 89.675674 C 1383.642212 91.085114 1384.434326 92.996933 1384.434326 94.990425 C 1384.434326 96.983925 1383.642212 98.895737 1382.232544 100.305191 C 1379.295898 103.241714 1374.536743 103.241714 1371.604858 100.305191 C 1369.825806 98.527481 1369.053955 95.977745 1369.54834 93.511833 C 1370.042725 91.045929 1371.737793 88.990761 1374.064453 88.036186 L 1374.064453 61.110291 C 1373.142944 60.733948 1372.306396 60.176079 1371.604858 59.469887 C 1369.380737 57.248611 1368.845947 53.985291 1369.985596 51.254036 L 1358.86731 40.133873 L 1329.507446 69.491837 C 1328.322632 70.676651 1327.656982 72.283623 1327.656982 73.959236 C 1327.656982 75.63485 1328.322632 77.241829 1329.507446 78.426636 L 1372.327393 121.244781 C 1374.794189 123.710815 1378.792725 123.710815 1381.259521 121.244781 L 1423.879761 78.626389 C 1426.346191 76.158417 1426.346191 72.158653 1423.879761 69.690674"/>
        </g>
        <g id="material-ui-1">
            <path id="path13" fill="white" stroke="none" d="M 896.458984 78.835754 L 896.458984 20.966133 L 946.577026 49.90094 L 946.577026 69.190819 L 913.164978 49.90094 L 913.164978 88.480698 Z"/>
            <path id="path14" fill="white" stroke="none" d="M 946.577026 49.90094 L 996.695068 20.966133 L 996.695068 78.835754 L 963.28302 98.125633 L 946.577026 88.480698 L 979.989014 69.190819 L 979.989014 49.90094 L 946.577026 69.190819 Z"/>
            <path id="path15" fill="white" stroke="none" d="M 946.577026 88.480698 L 946.577026 107.770576 L 979.989014 127.060448 L 979.989014 107.770576 Z"/>
            <path id="path16" fill="white" stroke="none" d="M 979.989014 127.060448 L 1030.107056 98.125633 L 1030.107056 59.545883 L 1013.401062 69.190819 L 1013.401062 88.480698 L 979.989014 107.770576 Z M 1013.401062 49.90094 L 1013.401062 30.611069 L 1030.107056 20.966133 L 1030.107056 40.256004 Z"/>
        </g>
        <g id="github-icon-1">
            <path id="path17" fill="white" stroke="none" d="M 1117.874634 17.991524 C 1088.120483 17.991524 1063.993042 42.114784 1063.993042 71.873215 C 1063.993042 95.679962 1079.431763 115.876976 1100.840698 123.001762 C 1103.533447 123.500412 1104.522217 121.832893 1104.522217 120.409622 C 1104.522217 119.124969 1104.471924 114.880104 1104.449219 110.377884 C 1089.458862 113.637283 1086.295776 104.020515 1086.295776 104.020515 C 1083.844727 97.792458 1080.313232 96.136772 1080.313232 96.136772 C 1075.424805 92.792435 1080.681763 92.860893 1080.681763 92.860893 C 1086.092529 93.241226 1088.941528 98.413658 1088.941528 98.413658 C 1093.747192 106.651108 1101.546387 104.269424 1104.621094 102.893059 C 1105.104614 99.41011 1106.501221 97.033501 1108.041992 95.687988 C 1096.074341 94.32515 1083.493164 89.705032 1083.493164 69.059219 C 1083.493164 63.176842 1085.598022 58.369934 1089.045044 54.596672 C 1088.485596 53.239334 1086.641479 47.759254 1089.567017 40.337395 C 1089.567017 40.337395 1094.091553 38.889198 1104.388306 45.86058 C 1108.686035 44.666351 1113.295532 44.06797 1117.874634 44.047691 C 1122.453857 44.06797 1127.066772 44.666351 1131.372925 45.86058 C 1141.657349 38.889198 1146.175659 40.337395 1146.175659 40.337395 C 1149.108398 47.759254 1147.263306 53.239334 1146.703857 54.596672 C 1150.158447 58.369934 1152.249023 63.176414 1152.249023 69.059219 C 1152.249023 89.754044 1139.644165 94.311203 1127.646118 95.644882 C 1129.578613 97.317047 1131.300659 100.596313 1131.300659 105.622955 C 1131.300659 112.832253 1131.238037 118.634766 1131.238037 120.409622 C 1131.238037 121.84346 1132.207886 123.523651 1134.939453 122.994576 C 1156.33667 115.861771 1171.755981 95.671936 1171.755981 71.873215 C 1171.755981 42.114784 1147.631836 17.991524 1117.874634 17.991524"/>
            <path id="path18" fill="white" stroke="none" d="M 1084.173584 94.747314 C 1084.055176 95.014809 1083.633423 95.0951 1083.250244 94.911697 C 1082.859253 94.735901 1082.639526 94.370789 1082.766357 94.10202 C 1082.882568 93.8265 1083.304321 93.749588 1083.694336 93.934677 C 1084.08606 94.110062 1084.309204 94.478546 1084.173584 94.747314 M 1086.823975 97.112091 C 1086.567017 97.350441 1086.064575 97.239716 1085.723633 96.863197 C 1085.371094 96.487518 1085.305176 95.985489 1085.565918 95.743347 C 1085.830933 95.505432 1086.318115 95.61657 1086.671387 95.992668 C 1087.023926 96.372574 1087.092285 96.871643 1086.823608 97.112518 M 1088.642334 100.137802 C 1088.31189 100.367271 1087.771851 100.152176 1087.438477 99.672958 C 1087.108398 99.194176 1087.108398 98.619461 1087.445557 98.389153 C 1087.780273 98.158844 1088.31189 98.365906 1088.650024 98.841316 C 1088.979614 99.32856 1088.979614 99.903275 1088.641968 100.138229 M 1091.717041 103.642303 C 1091.421753 103.967697 1090.792847 103.880638 1090.332275 103.436081 C 1089.861572 103.001663 1089.730103 102.385109 1090.026367 102.059296 C 1090.325073 101.733063 1090.957764 101.824768 1091.421753 102.265518 C 1091.889526 102.699097 1092.032349 103.320297 1091.717529 103.642303 M 1095.69104 104.825546 C 1095.561401 105.247284 1094.955322 105.439133 1094.345093 105.259964 C 1093.73584 105.075287 1093.336914 104.580864 1093.459839 104.15448 C 1093.58667 103.729782 1094.19519 103.5299 1094.809937 103.721748 C 1095.418579 103.905571 1095.818237 104.396194 1095.691528 104.825546 M 1100.214478 105.327148 C 1100.229614 105.771706 1099.712036 106.140198 1099.071289 106.148232 C 1098.42688 106.162178 1097.905884 105.802551 1097.899048 105.365608 C 1097.899048 104.916824 1098.404907 104.551712 1099.04895 104.541138 C 1099.689575 104.528465 1100.214478 104.885544 1100.214478 105.327148 M 1104.657471 105.156845 C 1104.734375 105.590424 1104.28894 106.035828 1103.652954 106.154144 C 1103.027588 106.26825 1102.448608 106.000748 1102.368774 105.570976 C 1102.291016 105.126427 1102.744873 104.681442 1103.369019 104.566071 C 1104.006226 104.455353 1104.576416 104.716095 1104.657471 105.156845"/>
        </g>
        <g id="heroku-4">
            <path id="path19" fill="white" stroke="none" d="M 1204.71582 26.915344 L 1300.894775 26.915344 L 1300.894775 123.094307 L 1204.71582 123.094307 Z"/>
            <path id="path20" fill="#3bba92" stroke="none" d="M 1259.249268 102.700523 L 1259.249268 72.407997 C 1259.249268 72.407997 1261.218994 65.159943 1234.977539 75.374153 C 1234.931396 75.504959 1234.931396 47.359146 1234.931396 47.359146 L 1243.506714 47.30529 L 1243.506714 65.336914 C 1243.506714 65.336914 1267.512939 55.8806 1267.512939 72.508026 L 1267.512939 102.700523 Z M 1264.135132 58.219673 L 1255.040405 58.219673 C 1258.314331 54.218628 1261.276733 47.359146 1261.276733 47.359146 L 1270.679199 47.359146 C 1270.682983 47.359146 1269.071045 51.829544 1264.135132 58.219673 Z M 1235.085205 102.650505 L 1235.085205 85.399849 L 1243.710571 94.025177 Z"/>
        </g>
        <g id="bxl-react">
            <path id="path21" fill="#ffffff" stroke="none" d="M 58.206039 63.276649 C 58.206039 68.142349 54.261604 72.086792 49.395897 72.086792 C 44.53019 72.086792 40.585754 68.142349 40.585754 63.276649 C 40.585754 58.410942 44.53019 54.466507 49.395897 54.466507 C 54.261604 54.466507 58.206039 58.410942 58.206039 63.276649 Z"/>
            <path id="path22" fill="#ffffff" stroke="none" d="M 24.727497 80.793282 L 22.777914 80.294785 C 8.296706 76.637459 -0.01 70.418541 -0.01 63.256905 C -0.01 56.090332 8.301641 49.876343 22.777914 46.219025 L 24.727497 45.725456 L 25.275354 47.655304 C 26.738981 52.707916 28.614225 57.632088 30.882256 62.378357 L 31.301786 63.256905 L 30.882256 64.135452 C 28.611858 68.888489 26.731373 73.81427 25.275354 78.868378 L 24.727497 80.793282 Z M 21.879627 50.710472 C 10.878053 53.810059 4.121142 58.538422 4.121142 63.256905 C 4.121142 67.965515 10.873117 72.698807 21.879627 75.793465 C 23.227058 71.509323 24.855824 67.318947 26.741243 63.256905 C 24.842165 59.188095 23.217983 54.996559 21.879627 50.710472 Z M 74.059357 80.793282 L 73.516434 78.858505 C 72.048943 73.804901 70.172112 68.87928 67.904602 64.130516 L 67.485069 63.256905 L 67.904602 62.373421 C 70.174995 57.630257 72.045616 52.699539 73.516434 47.645432 L 74.059357 45.720528 L 76.008942 46.214088 C 90.495087 49.871414 98.79686 56.085396 98.79686 63.256905 C 98.79686 70.423477 90.49015 76.637459 76.008942 80.294785 L 74.059357 80.793282 Z M 72.035744 63.256905 C 74.010002 67.531181 75.653572 71.736359 76.907227 75.793465 C 87.913742 72.698807 94.670654 67.965515 94.670654 63.256905 C 94.670654 58.538422 87.918678 53.814995 76.907227 50.710472 C 75.561157 54.995224 73.933792 59.186478 72.035744 63.256905 Z"/>
            <path id="path23" fill="#ffffff" stroke="none" d="M 21.850012 50.690727 L 21.307089 48.765823 C 17.230238 34.412941 18.464151 24.131973 24.697884 20.548691 C 30.793417 17.019691 40.600563 21.190331 50.871655 31.727951 L 52.273384 33.169159 L 50.871655 34.605438 C 47.223595 38.399406 43.889317 42.483063 40.901638 46.816238 L 40.34391 47.615814 L 39.376518 47.694786 C 34.122925 48.107399 28.911718 48.947601 23.794661 50.207039 L 21.850012 50.690727 Z M 29.658218 23.401497 C 28.552629 23.401497 27.575371 23.643349 26.751116 24.117172 C 22.664394 26.471474 21.94379 34.669594 24.757111 45.735336 C 29.154779 44.763008 33.591934 44.067085 38.063637 43.677162 C 40.652458 40.005302 43.476643 36.505165 46.51841 33.198776 C 40.087254 26.945305 34.016399 23.401497 29.658218 23.401497 Z M 69.128639 107.228645 C 63.265087 107.228645 55.733276 102.806297 47.915199 94.78093 L 46.51841 93.34465 L 47.915199 91.913315 C 51.563839 88.113251 54.899666 84.02475 57.890156 79.687698 L 58.442951 78.897995 L 59.400471 78.804214 C 64.655891 78.398911 69.869064 77.561966 74.987259 76.301834 L 76.936844 75.808273 L 77.484703 77.738113 C 81.541817 92.081116 80.312836 102.376892 74.088974 105.960182 C 72.57782 106.816757 70.865486 107.254639 69.128639 107.228645 Z M 52.273384 93.310104 C 58.699604 99.563576 64.775398 103.112312 69.128639 103.112312 C 70.239159 103.112312 71.216423 102.865532 72.035744 102.396637 C 76.127403 100.037399 76.852936 91.824463 74.029739 80.758728 C 69.637016 81.735992 65.194923 82.436859 60.713352 82.826775 C 58.135509 86.504425 55.315964 90.006607 52.273384 93.310104 Z"/>
            <path id="path24" fill="#ffffff" stroke="none" d="M 76.936844 50.690727 L 74.987259 50.202095 C 69.869331 48.938736 64.656158 48.098488 59.400471 47.68985 L 58.442951 47.605942 L 57.890156 46.806374 C 54.903828 42.470818 51.567711 38.386917 47.915199 34.595558 L 46.51841 33.159286 L 47.915199 31.727951 C 58.181358 21.195259 67.983566 17.024635 74.088974 20.548691 C 80.317764 24.136917 81.556618 34.41787 77.484703 48.765823 L 76.936844 50.690727 Z M 60.713352 43.677162 C 65.421967 44.096703 69.883789 44.80249 74.029739 45.735336 C 76.848007 34.669594 76.127403 26.471474 72.035744 24.112228 C 67.968758 21.757927 60.313564 25.360954 52.273384 33.198776 C 55.313747 36.505653 58.13694 40.000099 60.713352 43.677162 Z M 29.658218 107.228645 C 27.921511 107.253448 26.209486 106.815651 24.697884 105.960182 C 18.464151 102.376892 17.230238 92.08606 21.302155 77.738113 L 21.835203 75.808273 L 23.784786 76.301834 C 28.542759 77.501205 33.784424 78.3452 39.371582 78.804214 L 40.329102 78.897995 L 40.886829 79.687698 C 43.867966 84.021202 47.204464 88.112862 50.856846 91.913315 L 52.258575 93.34465 L 50.856846 94.78093 C 43.043713 102.811234 35.511902 107.228645 29.658218 107.228645 Z M 24.757111 80.763672 C 21.94379 91.829407 22.664394 100.042336 26.751116 102.401581 C 30.823032 104.721336 38.453552 101.142982 46.51841 93.310104 C 43.47781 90.002701 40.65369 86.50264 38.063637 82.831711 C 33.587463 82.435852 29.142292 81.74501 24.757111 80.763672 Z"/>
            <path id="path25" fill="#ffffff" stroke="none" d="M 49.395897 83.354889 C 46.0051 83.354889 42.525467 83.211754 39.031021 82.920547 L 38.063637 82.836639 L 37.505905 82.037064 C 35.535362 79.203506 33.681305 76.290695 31.94836 73.305893 C 30.228228 70.313065 28.629425 67.252121 27.15584 64.130516 L 26.741243 63.256905 L 27.15584 62.373421 C 28.631601 59.254089 30.225817 56.193985 31.94836 53.20298 C 33.661034 50.26133 35.531643 47.319679 37.505905 44.466873 L 38.063637 43.677162 L 39.031021 43.588326 C 45.925575 43.010849 52.856346 43.010849 59.750896 43.588326 L 60.708416 43.682098 L 61.266144 44.471802 C 65.213661 50.141647 68.680664 56.131325 71.631012 62.378357 L 72.040672 63.261841 L 71.631012 64.135452 C 68.688835 70.386765 65.221428 76.377106 61.266144 82.042007 L 60.708416 82.841576 L 59.750896 82.925484 C 56.266327 83.206818 52.781754 83.354889 49.395897 83.354889 Z M 40.34391 78.893059 C 46.439438 79.352066 52.352352 79.352066 58.442951 78.893059 C 61.843067 73.914017 64.865555 68.687355 67.485069 63.256905 C 64.874809 57.821564 61.851921 52.594215 58.442951 47.62075 C 52.418854 47.156799 46.368 47.156799 40.34391 47.62075 C 36.932087 52.592415 33.909069 57.819984 31.301786 63.256905 C 33.926956 68.684357 36.949207 73.910614 40.34391 78.893059 Z"/>
        </g>
    </g>
</svg>
